#Comment line ignore any data following # character 
#Hierarchical Translation and Rotation (.htr) file 
[Header]	
#Header keywords are followed by a single value 
FileType HTR		#Single word string
DataType HTRS		#Translation followed by rotation and scale data
FileVersion 1		#integer
NumSegments 84		#integer
NumFrames 2		#integer
DataFrameRate 30		#integer, data frame rate in this file
EulerRotationOrder ZYX
CalibrationUnits mm
RotationUnits Degrees
GlobalAxisofGravity Y
BoneLengthAxis Y
ScaleFactor 1.00
[SegmentNames&Hierarchy]
#CHILD	PARENT
MASTER GLOBAL
root MASTER
chest root
L_mid_tent01 root
R_mid_tent01 root
spine01 root
Bip01_Neck chest
L_humerus chest
R_humerus chest
weapon_bone chest
Bip01_Head Bip01_Neck
eye_left_bone Bip01_Head
eye_right_bone Bip01_Head
L_forearm L_humerus
L_front_hand L_forearm
L_weapon_bone L_forearm
L_front_hand01_01 L_front_hand
L_front_hand02_01 L_front_hand
L_front_hand03_01 L_front_hand
L_front_hand01_02 L_front_hand01_01
L_front_hand02_02 L_front_hand02_01
L_front_hand03_02 L_front_hand03_01
R_forearm R_humerus
R_front_hand R_forearm
R_weapon_bone R_forearm
R_front_hand01_01 R_front_hand
R_front_hand02_01 R_front_hand
R_front_hand03_01 R_front_hand
R_front_hand01_02 R_front_hand01_01
R_front_hand02_02 R_front_hand02_01
R_front_hand03_02 R_front_hand03_01
null_rope01_connect L_mid_tent01
Rope1_Seg01 null_rope01_connect
Rope1_Seg02 Rope1_Seg01
Rope1_Seg03 Rope1_Seg02
Rope1_Seg04 Rope1_Seg03
Rope1_Seg05 Rope1_Seg04
Rope1_Seg06 Rope1_Seg05
Rope1_Seg07 Rope1_Seg06
Rope1_Seg09 Rope1_Seg07
L_mid_hand01 Rope1_Seg09
L_mid_hand02 Rope1_Seg09
L_mid_hand03 Rope1_Seg09
null_rope02_connect R_mid_tent01
Rope2_Seg01 null_rope02_connect
Rope2_Seg02 Rope2_Seg01
Rope2_Seg03 Rope2_Seg02
Rope2_Seg04 Rope2_Seg03
Rope2_Seg05 Rope2_Seg04
Rope2_Seg06 Rope2_Seg05
Rope2_Seg07 Rope2_Seg06
Rope2_Seg09 Rope2_Seg07
R_mid_hand01 Rope2_Seg09
R_mid_hand02 Rope2_Seg09
R_mid_hand03 Rope2_Seg09
spine02 spine01
spine03 spine02
pelvis spine03
null_rope03_connect pelvis
null_rope04_connect pelvis
Rope3_Seg01 null_rope03_connect
Rope3_Seg02 Rope3_Seg01
Rope3_Seg03 Rope3_Seg02
Rope3_Seg04 Rope3_Seg03
Rope3_Seg05 Rope3_Seg04
Rope3_Seg06 Rope3_Seg05
Rope3_Seg07 Rope3_Seg06
Rope3_Seg08 Rope3_Seg07
Rope3_Seg09 Rope3_Seg08
R_rear_hand01 Rope3_Seg09
R_rear_hand02 Rope3_Seg09
R_rear_hand03 Rope3_Seg09
Rope4_Seg01 null_rope04_connect
Rope4_Seg02 Rope4_Seg01
Rope4_Seg03 Rope4_Seg02
Rope4_Seg04 Rope4_Seg03
Rope4_Seg05 Rope4_Seg04
Rope4_Seg06 Rope4_Seg05
Rope4_Seg07 Rope4_Seg06
Rope4_Seg08 Rope4_Seg07
Rope4_Seg09 Rope4_Seg08
L_rear_hand01 Rope4_Seg09
L_rear_hand02 Rope4_Seg09
L_rear_hand03 Rope4_Seg09
[BasePosition]
#SegmentName Tx, Ty, Tz, Rx, Ry, Rz, BoneLength
MASTER 0.000000 0.000000 0.000000 -90.000000 0.000000 0.000000 10.000000 
root 0.000000 0.000000 0.000000 0.000000 0.000000 0.000000 10.000000 
chest 0.000000 0.000000 0.000000 0.000000 0.000000 0.000000 10.000000 
L_mid_tent01 0.000000 0.000000 0.000000 0.000000 0.000000 0.000000 10.000000 
R_mid_tent01 0.000000 0.000000 0.000000 0.000000 0.000000 0.000000 10.000000 
spine01 0.000000 0.000000 0.000000 0.000000 0.000000 0.000000 10.000000 
Bip01_Neck 0.000000 0.000000 0.000000 0.000000 0.000000 0.000000 10.000000 
L_humerus 0.000000 0.000000 0.000000 0.000000 0.000000 0.000000 10.000000 
R_humerus 0.000000 0.000000 0.000000 0.000000 0.000000 0.000000 10.000000 
weapon_bone 0.000000 0.000000 0.000000 0.000000 0.000000 0.000000 10.000000 
Bip01_Head 0.000000 0.000000 0.000000 0.000000 0.000000 0.000000 10.000000 
eye_left_bone 0.000000 0.000000 0.000000 0.000000 0.000000 0.000000 10.000000 
eye_right_bone 0.000000 0.000000 0.000000 0.000000 0.000000 0.000000 10.000000 
L_forearm 0.000000 0.000000 0.000000 0.000000 0.000000 0.000000 10.000000 
L_front_hand 0.000000 0.000000 0.000000 0.000000 0.000000 0.000000 10.000000 
L_weapon_bone 0.000000 0.000000 0.000000 0.000000 0.000000 0.000000 10.000000 
L_front_hand01_01 0.000000 0.000000 0.000000 0.000000 0.000000 0.000000 10.000000 
L_front_hand02_01 0.000000 0.000000 0.000000 0.000000 0.000000 0.000000 10.000000 
L_front_hand03_01 0.000000 0.000000 0.000000 0.000000 0.000000 0.000000 10.000000 
L_front_hand01_02 0.000000 0.000000 0.000000 0.000000 0.000000 0.000000 10.000000 
L_front_hand02_02 0.000000 0.000000 0.000000 0.000000 0.000000 0.000000 10.000000 
L_front_hand03_02 0.000000 0.000000 0.000000 0.000000 0.000000 0.000000 10.000000 
R_forearm 0.000000 0.000000 0.000000 0.000000 0.000000 0.000000 10.000000 
R_front_hand 0.000000 0.000000 0.000000 0.000000 0.000000 0.000000 10.000000 
R_weapon_bone 0.000000 0.000000 0.000000 0.000000 0.000000 0.000000 10.000000 
R_front_hand01_01 0.000000 0.000000 0.000000 0.000000 0.000000 0.000000 10.000000 
R_front_hand02_01 0.000000 0.000000 0.000000 0.000000 0.000000 0.000000 10.000000 
R_front_hand03_01 0.000000 0.000000 0.000000 0.000000 0.000000 0.000000 10.000000 
R_front_hand01_02 0.000000 0.000000 0.000000 0.000000 0.000000 0.000000 10.000000 
R_front_hand02_02 0.000000 0.000000 0.000000 0.000000 0.000000 0.000000 10.000000 
R_front_hand03_02 0.000000 0.000000 0.000000 0.000000 0.000000 0.000000 10.000000 
null_rope01_connect 0.000000 0.000000 0.000000 0.000000 0.000000 0.000000 10.000000 
Rope1_Seg01 0.000000 0.000000 0.000000 0.000000 0.000000 0.000000 10.000000 
Rope1_Seg02 0.000000 0.000000 0.000000 0.000000 0.000000 0.000000 10.000000 
Rope1_Seg03 0.000000 0.000000 0.000000 0.000000 0.000000 0.000000 10.000000 
Rope1_Seg04 0.000000 0.000000 0.000000 0.000000 0.000000 0.000000 10.000000 
Rope1_Seg05 0.000000 0.000000 0.000000 0.000000 0.000000 0.000000 10.000000 
Rope1_Seg06 0.000000 0.000000 0.000000 0.000000 0.000000 0.000000 10.000000 
Rope1_Seg07 0.000000 0.000000 0.000000 0.000000 0.000000 0.000000 10.000000 
Rope1_Seg09 0.000000 0.000000 0.000000 0.000000 0.000000 0.000000 10.000000 
L_mid_hand01 0.000000 0.000000 0.000000 0.000000 0.000000 0.000000 10.000000 
L_mid_hand02 0.000000 0.000000 0.000000 0.000000 0.000000 0.000000 10.000000 
L_mid_hand03 0.000000 0.000000 0.000000 0.000000 0.000000 0.000000 10.000000 
null_rope02_connect 0.000000 0.000000 0.000000 0.000000 0.000000 0.000000 10.000000 
Rope2_Seg01 0.000000 0.000000 0.000000 0.000000 0.000000 0.000000 10.000000 
Rope2_Seg02 0.000000 0.000000 0.000000 0.000000 0.000000 0.000000 10.000000 
Rope2_Seg03 0.000000 0.000000 0.000000 0.000000 0.000000 0.000000 10.000000 
Rope2_Seg04 0.000000 0.000000 0.000000 0.000000 0.000000 0.000000 10.000000 
Rope2_Seg05 0.000000 0.000000 0.000000 0.000000 0.000000 0.000000 10.000000 
Rope2_Seg06 0.000000 0.000000 0.000000 0.000000 0.000000 0.000000 10.000000 
Rope2_Seg07 0.000000 0.000000 0.000000 0.000000 0.000000 0.000000 10.000000 
Rope2_Seg09 0.000000 0.000000 0.000000 0.000000 0.000000 0.000000 10.000000 
R_mid_hand01 0.000000 0.000000 0.000000 0.000000 0.000000 0.000000 10.000000 
R_mid_hand02 0.000000 0.000000 0.000000 0.000000 0.000000 0.000000 10.000000 
R_mid_hand03 0.000000 0.000000 0.000000 0.000000 0.000000 0.000000 10.000000 
spine02 0.000000 0.000000 0.000000 0.000000 0.000000 0.000000 10.000000 
spine03 0.000000 0.000000 0.000000 0.000000 0.000000 0.000000 10.000000 
pelvis 0.000000 0.000000 0.000000 0.000000 0.000000 0.000000 10.000000 
null_rope03_connect 0.000000 0.000000 0.000000 0.000000 0.000000 0.000000 10.000000 
null_rope04_connect 0.000000 0.000000 0.000000 0.000000 0.000000 0.000000 10.000000 
Rope3_Seg01 0.000000 0.000000 0.000000 0.000000 0.000000 0.000000 10.000000 
Rope3_Seg02 0.000000 0.000000 0.000000 0.000000 0.000000 0.000000 10.000000 
Rope3_Seg03 0.000000 0.000000 0.000000 0.000000 0.000000 0.000000 10.000000 
Rope3_Seg04 0.000000 0.000000 0.000000 0.000000 0.000000 0.000000 10.000000 
Rope3_Seg05 0.000000 0.000000 0.000000 0.000000 0.000000 0.000000 10.000000 
Rope3_Seg06 0.000000 0.000000 0.000000 0.000000 0.000000 0.000000 10.000000 
Rope3_Seg07 0.000000 0.000000 0.000000 0.000000 0.000000 0.000000 10.000000 
Rope3_Seg08 0.000000 0.000000 0.000000 0.000000 0.000000 0.000000 10.000000 
Rope3_Seg09 0.000000 0.000000 0.000000 0.000000 0.000000 0.000000 10.000000 
R_rear_hand01 0.000000 0.000000 0.000000 0.000000 0.000000 0.000000 10.000000 
R_rear_hand02 0.000000 0.000000 0.000000 0.000000 0.000000 0.000000 10.000000 
R_rear_hand03 0.000000 0.000000 0.000000 0.000000 0.000000 0.000000 10.000000 
Rope4_Seg01 0.000000 0.000000 0.000000 0.000000 0.000000 0.000000 10.000000 
Rope4_Seg02 0.000000 0.000000 0.000000 0.000000 0.000000 0.000000 10.000000 
Rope4_Seg03 0.000000 0.000000 0.000000 0.000000 0.000000 0.000000 10.000000 
Rope4_Seg04 0.000000 0.000000 0.000000 0.000000 0.000000 0.000000 10.000000 
Rope4_Seg05 0.000000 0.000000 0.000000 0.000000 0.000000 0.000000 10.000000 
Rope4_Seg06 0.000000 0.000000 0.000000 0.000000 0.000000 0.000000 10.000000 
Rope4_Seg07 0.000000 0.000000 0.000000 0.000000 0.000000 0.000000 10.000000 
Rope4_Seg08 0.000000 0.000000 0.000000 0.000000 0.000000 0.000000 10.000000 
Rope4_Seg09 0.000000 0.000000 0.000000 0.000000 0.000000 0.000000 10.000000 
L_rear_hand01 0.000000 0.000000 0.000000 0.000000 0.000000 0.000000 10.000000 
L_rear_hand02 0.000000 0.000000 0.000000 0.000000 0.000000 0.000000 10.000000 
L_rear_hand03 0.000000 0.000000 0.000000 0.000000 0.000000 0.000000 10.000000 
#Beginning of Data. Separated by tabs
#Fr	Tx	Ty	Tz	Rx	Ry	Rz	SF
[MASTER]
6 0.000003 -0.000012 -269.203644 0.001660 0.001660 0.001660 269.203644
7 0.000003 0.000005 109.363731 0.001660 0.001660 0.001660 109.363739
[root]
6 -16.502304 3.843091 1449.482300 -92.288544 -27.628214 -88.966446 1449.581421
7 -16.502304 2.683040 1449.861206 -91.575470 -27.160305 -89.272797 1449.957642
[chest]
6 -84.512650 -34.090519 0.000000 -2.438625 -1.301818 -178.559021 91.129311
7 -84.512650 -34.090519 0.000000 -2.498043 -1.567921 -176.008820 91.129311
[L_mid_tent01]
6 27.299091 22.179089 -249.918701 -5.350803 20.547752 53.656895 252.381683
7 27.299091 22.179087 -249.918701 -0.945563 20.871172 63.872753 252.381683
[R_mid_tent01]
6 23.228794 24.509907 226.238495 166.649323 -23.867834 69.635040 228.744751
7 23.228794 24.509907 226.238495 160.412201 -22.044914 79.688805 228.744751
[spine01]
6 -0.361383 -0.195265 0.000000 0.001870 0.001419 15.609004 0.410763
7 -0.361383 -0.195265 0.000000 0.001855 0.001439 14.396827 0.410763
[Bip01_Neck]
6 165.484543 71.581718 0.000119 176.643677 -1.657967 43.431911 180.302734
7 165.484543 71.581718 0.000119 176.643677 -1.657967 43.431911 180.302734
[L_humerus]
6 -13.983130 -135.272980 -120.471481 156.317444 70.210014 -112.010185 181.680161
7 -13.983130 -135.272980 -120.471481 161.776993 63.701881 -103.521339 181.680161
[R_humerus]
6 -13.983309 -135.273102 125.287651 -172.382263 -66.903793 -92.554008 184.909012
7 -13.983309 -135.273102 125.287651 -172.865219 -59.762119 -91.938210 184.909012
[weapon_bone]
6 235.964890 -300.705902 0.000000 0.000000 -89.951546 -128.212341 382.234833
7 235.964890 -300.705902 0.000000 0.000000 -89.951546 -128.212341 382.234833
[Bip01_Head]
6 213.442719 185.719604 11.723816 4.962490 2.797846 -43.898743 283.173126
7 213.442444 185.720459 11.713190 4.962490 2.797846 -43.898743 283.173035
[eye_left_bone]
6 -24.626970 125.451866 -64.772606 0.000000 -90.000000 -99.840431 143.318359
7 -24.626970 125.451866 -64.772606 0.000000 -90.000000 -99.840431 143.318359
[eye_right_bone]
6 -24.626970 125.451866 64.327362 0.000000 -89.965736 80.156380 143.117676
7 -24.626970 125.451866 64.327362 0.000000 -89.965736 80.156380 143.117676
[L_forearm]
6 322.776093 0.000000 -0.000119 0.000253 -0.002334 -102.392021 322.776093
7 322.776093 0.000000 -0.000119 0.000219 -0.002337 -100.705917 322.776093
[L_front_hand]
6 241.149185 -0.042021 -3.300071 -178.667953 -1.835447 -27.422350 241.171753
7 241.149185 -0.042021 -3.300071 -178.667953 -1.835447 -27.422350 241.171753
[L_weapon_bone]
6 156.183838 0.000000 0.000000 0.000014 0.000007 0.000001 156.183838
7 156.183838 0.000000 0.000000 0.000014 0.000007 0.000001 156.183838
[L_front_hand01_01]
6 86.095154 20.947098 -0.655860 -0.366594 -0.477154 75.385574 88.609184
7 86.095154 20.947098 -0.655860 -0.366594 -0.477154 75.385582 88.609184
[L_front_hand02_01]
6 86.935165 -11.437475 24.513514 154.399811 -59.883846 -61.369606 91.046425
7 86.935165 -11.437475 24.513514 154.399796 -59.883835 -61.369587 91.046425
[L_front_hand03_01]
6 86.637497 -14.123976 -20.424902 -153.913849 58.118122 -62.702866 90.126129
7 86.637497 -14.123976 -20.424902 -153.913849 58.118122 -62.702866 90.126129
[L_front_hand01_02]
6 71.020905 -0.000179 0.000030 0.000334 -0.002323 -106.379684 71.020905
7 71.020905 -0.000179 0.000030 0.000334 -0.002323 -106.379684 71.020905
[L_front_hand02_02]
6 71.020927 -0.000119 0.000060 0.000334 -0.002323 -106.379684 71.020927
7 71.020927 -0.000119 0.000060 0.000334 -0.002323 -106.379684 71.020927
[L_front_hand03_02]
6 71.020905 -0.000060 0.000060 0.000334 -0.002323 -106.379684 71.020905
7 71.020905 -0.000060 0.000060 0.000334 -0.002323 -106.379684 71.020905
[R_forearm]
6 322.776428 -0.000060 0.000030 0.210901 0.035469 -100.975838 322.776428
7 322.776428 -0.000060 0.000030 0.211710 0.028859 -99.278511 322.776428
[R_front_hand]
6 238.847015 -0.006795 2.210259 -2.635298 -10.645461 -26.312506 238.857239
7 238.847015 -0.006795 2.210259 -2.635298 -10.645461 -26.312506 238.857239
[R_weapon_bone]
6 155.664093 0.002503 -0.000030 0.003487 0.001180 -90.988930 155.664078
7 155.664093 0.002503 -0.000030 0.003487 0.001180 -90.988930 155.664078
[R_front_hand01_01]
6 87.624611 14.231146 22.918642 -154.633499 -59.950615 61.746044 91.683487
7 87.624611 14.231146 22.918642 -154.633499 -59.950619 61.746044 91.683487
[R_front_hand02_01]
6 89.356956 14.367283 -19.491137 154.602661 58.302849 63.744381 92.579636
7 89.356956 14.367283 -19.491137 154.602661 58.302849 63.744389 92.579636
[R_front_hand03_01]
6 87.286232 -22.307278 -0.143439 0.162155 -0.423168 -75.767921 90.091743
7 87.286232 -22.307278 -0.143439 0.162155 -0.423168 -75.767921 90.091743
[R_front_hand01_02]
6 71.020905 0.000060 0.000119 0.002323 -0.000334 106.381714 71.020905
7 71.020905 0.000060 0.000119 0.002323 -0.000334 106.381714 71.020905
[R_front_hand02_02]
6 71.020844 -0.000030 -0.000119 0.002323 -0.000334 106.381714 71.020836
7 71.020844 -0.000030 -0.000119 0.002323 -0.000334 106.381714 71.020836
[R_front_hand03_02]
6 71.020905 0.000000 0.000030 0.002323 -0.000334 106.381714 71.020905
7 71.020905 0.000000 0.000030 0.002323 -0.000334 106.381714 71.020905
[null_rope01_connect]
6 328.732483 0.000000 -0.000238 -134.612366 -67.396965 -162.088715 328.732483
7 328.732483 0.000000 -0.000238 -132.096008 -68.199020 -174.579849 328.732483
[Rope1_Seg01]
6 0.000034 -0.000042 0.000069 19.137983 25.308090 -146.346298 0.000088
7 0.000033 -0.000043 0.000083 19.624660 39.573971 -149.670746 0.000099
[Rope1_Seg02]
6 139.999863 -0.000179 0.000000 4.931135 4.930255 4.902682 139.999863
7 139.999863 -0.000179 0.000000 2.150863 1.948267 5.521906 139.999863
[Rope1_Seg03]
6 139.999924 0.000060 -0.000060 2.073918 2.327061 1.909097 139.999924
7 139.999924 0.000060 -0.000060 1.264964 0.526461 3.559319 139.999924
[Rope1_Seg04]
6 139.999924 -0.000060 -0.000119 1.654542 1.813843 1.600968 139.999924
7 139.999924 -0.000060 -0.000119 0.415782 2.444662 -1.226219 139.999924
[Rope1_Seg05]
6 139.999832 0.000119 -0.000060 1.946309 2.131755 1.878293 139.999832
7 139.999832 0.000119 -0.000060 0.075159 3.442795 -3.153292 139.999832
[Rope1_Seg06]
6 139.999954 0.000119 -0.000060 1.777269 2.049100 1.636325 139.999954
7 139.999954 0.000119 -0.000060 0.154775 2.507148 -1.820443 139.999954
[Rope1_Seg07]
6 139.999985 0.000060 0.000000 1.313658 1.566131 1.172141 139.999985
7 139.999985 0.000060 0.000000 0.102364 1.897313 -1.386619 139.999985
[Rope1_Seg09]
6 121.602913 0.000119 -0.000089 -89.793175 -1.359789 0.847147 121.602913
7 121.602913 0.000119 -0.000089 -89.793175 -1.359789 0.847147 121.602913
[L_mid_hand01]
6 103.859421 1.038730 8.195221 130.544373 -67.584534 -38.866943 104.187431
7 103.859421 1.038730 8.195221 130.544373 -67.584534 -38.866943 104.187431
[L_mid_hand02]
6 105.572853 -4.139662 -10.864139 -168.923172 43.409321 -73.498909 106.211075
7 105.572853 -4.139662 -10.864139 -168.923172 43.409309 -73.498886 106.211075
[L_mid_hand03]
6 104.641464 17.579376 -3.913581 -6.012627 17.808178 74.893677 106.179977
7 104.641464 17.579376 -3.913581 -6.012627 17.808174 74.893669 106.179977
[null_rope02_connect]
6 328.732849 0.000179 -0.000119 -97.681862 63.214127 31.949579 328.732849
7 328.732849 0.000179 -0.000119 -96.536514 61.022087 42.486927 328.732849
[Rope2_Seg01]
6 0.000050 0.000111 0.000000 19.906624 53.667015 -46.934479 0.000122
7 0.000045 0.000111 0.000000 8.146250 66.406578 -59.551273 0.000120
[Rope2_Seg02]
6 139.999741 -0.000060 -0.000119 1.832974 -15.496706 14.720538 139.999756
7 139.999741 -0.000060 -0.000119 0.682796 -10.232365 15.525719 139.999756
[Rope2_Seg03]
6 140.000107 0.000030 0.000000 5.453755 -11.122632 11.501227 140.000107
7 140.000107 0.000030 0.000000 6.002204 -12.474153 20.670900 140.000107
[Rope2_Seg04]
6 139.999802 0.000000 -0.000060 -11.267577 4.104021 -13.991138 139.999802
7 139.999802 0.000000 -0.000060 -6.572209 6.364508 -13.525931 139.999802
[Rope2_Seg05]
6 139.999985 -0.000060 0.000119 -3.881649 3.175894 -6.683773 139.999985
7 139.999985 -0.000060 0.000119 -2.811375 5.361764 -8.934465 139.999985
[Rope2_Seg06]
6 139.999893 -0.000030 -0.000119 -1.759108 1.866877 -3.579467 139.999893
7 139.999893 -0.000030 -0.000119 -0.909519 2.824085 -4.226932 139.999893
[Rope2_Seg07]
6 139.999893 0.000060 -0.000060 -0.548992 0.648961 -1.163742 139.999893
7 139.999893 0.000060 -0.000060 -0.273068 0.997346 -1.444954 139.999893
[Rope2_Seg09]
6 121.338966 0.000089 -0.000060 33.793236 -1.359788 -0.847141 121.338966
7 121.338966 0.000089 -0.000060 33.793236 -1.359788 -0.847141 121.338966
[R_mid_hand01]
6 104.680779 11.144459 -10.335981 -16.212063 45.237247 70.462852 105.778534
7 104.680779 11.144459 -10.335981 -16.212063 45.237247 70.462852 105.778534
[R_mid_hand02]
6 104.070427 2.443552 8.231699 49.067387 -67.749794 39.286469 104.424065
7 104.070427 2.443552 8.231699 49.067387 -67.749794 39.286469 104.424065
[R_mid_hand03]
6 106.028137 -11.221827 -5.996406 -177.101105 15.551029 -76.585594 106.788818
7 106.028137 -11.221827 -5.996406 -177.101105 15.551026 -76.585571 106.788818
[spine02]
6 129.756927 0.001550 0.000119 -0.361684 -4.044706 -2.747240 129.756927
7 129.756927 0.001550 0.000119 -0.531892 -4.024891 -0.311273 129.756927
[spine03]
6 78.614067 0.081743 -4.899005 1.461414 4.019090 10.142403 78.766602
7 78.614067 0.081743 -4.899004 1.354834 4.054824 8.625311 78.766602
[pelvis]
6 169.435242 0.051022 0.000000 -0.020251 -0.191011 1.277687 169.435257
7 169.435242 0.051022 0.000000 -0.010183 -0.191477 -1.794352 169.435257
[null_rope03_connect]
6 -1.257226 -2.466202 137.391083 176.852692 -88.343651 -83.442360 137.418976
7 -1.257226 -2.466202 137.391083 177.051727 -88.805969 -80.743721 137.418976
[null_rope04_connect]
6 -1.259640 -2.480268 -137.844437 176.852692 -88.343651 -83.442360 137.872513
7 -1.259640 -2.480268 -137.844437 177.051727 -88.805969 -80.743721 137.872513
[Rope3_Seg01]
6 0.000000 0.000000 0.000000 15.473845 29.903908 -85.221527 0.000000
7 0.000000 0.000000 0.000000 19.015646 39.148445 -80.186562 0.000000
[Rope3_Seg02]
6 139.999924 -0.000119 0.000060 2.415138 15.440454 6.512216 139.999924
7 139.999924 -0.000119 0.000060 2.951169 14.329805 2.756277 139.999924
[Rope3_Seg03]
6 139.999924 -0.000119 0.000119 4.296504 13.979717 8.243107 139.999924
7 139.999924 -0.000119 0.000119 4.136688 12.395020 4.329596 139.999924
[Rope3_Seg04]
6 139.999924 0.000119 0.000000 4.440357 9.240154 2.952876 139.999924
7 139.999924 0.000119 0.000000 4.191767 8.615893 0.962733 139.999924
[Rope3_Seg05]
6 139.999924 -0.000238 0.000060 3.794083 1.362110 -8.547348 139.999924
7 139.999924 -0.000238 0.000060 3.794469 2.351014 -8.585276 139.999924
[Rope3_Seg06]
6 139.999893 -0.000119 -0.000060 2.514245 -0.512367 -8.431882 139.999893
7 139.999893 -0.000119 -0.000060 2.571965 0.315764 -8.671556 139.999893
[Rope3_Seg07]
6 139.999771 0.000060 -0.000119 1.655743 0.597639 -4.586025 139.999771
7 139.999771 0.000060 -0.000119 1.652153 0.988795 -4.936954 139.999771
[Rope3_Seg08]
6 139.999985 -0.000060 0.000000 1.176008 0.305066 -3.047232 139.999985
7 139.999985 -0.000060 0.000000 1.158417 0.554391 -3.282272 139.999985
[Rope3_Seg09]
6 90.185997 -0.000179 -0.000060 89.793228 -1.359877 -0.847183 90.185997
7 90.185997 -0.000179 -0.000060 89.793228 -1.359877 -0.847183 90.185997
[R_rear_hand01]
6 103.366196 -6.073594 -10.757982 -177.714203 24.565960 -73.910950 104.101845
7 103.366196 -6.073594 -10.757982 -177.714203 24.565960 -73.910950 104.101845
[R_rear_hand02]
6 100.509819 12.039542 -7.992327 -12.874834 36.868492 72.167213 101.543350
7 100.509819 12.039542 -7.992327 -12.874829 36.868488 72.167213 101.543350
[R_rear_hand03]
6 101.539970 5.215704 5.435467 71.484581 -71.816628 21.513813 101.819031
7 101.539970 5.215704 5.435467 71.484627 -71.816643 21.513817 101.819031
[Rope4_Seg01]
6 0.000010 0.000034 -0.000135 -104.419594 27.111429 -112.049538 0.000140
7 0.000010 0.000033 -0.000132 -107.056671 32.373730 -114.313637 0.000136
[Rope4_Seg02]
6 139.999985 0.000060 0.000119 0.217407 0.551368 -0.388009 139.999985
7 139.999985 0.000060 0.000119 0.233498 0.126422 -0.551999 139.999985
[Rope4_Seg03]
6 139.999924 0.000000 -0.000238 0.295021 0.675768 -0.575263 139.999924
7 139.999924 0.000000 -0.000238 0.312357 0.132341 -0.769511 139.999924
[Rope4_Seg04]
6 139.999985 0.000000 0.000119 1.220574 0.483748 -4.366522 139.999985
7 139.999985 0.000000 0.000119 1.360168 -0.628349 -4.894032 139.999985
[Rope4_Seg05]
6 139.999802 -0.000060 -0.000119 -1.142820 2.187855 5.680940 139.999802
7 139.999802 -0.000060 -0.000119 -1.186828 1.756993 5.486116 139.999802
[Rope4_Seg06]
6 139.999924 0.000000 0.000060 -2.253058 1.391304 7.385144 139.999924
7 139.999924 0.000000 0.000060 -2.487898 1.871080 8.190868 139.999924
[Rope4_Seg07]
6 139.999802 0.000000 0.000000 -0.841967 0.530608 2.639092 139.999802
7 139.999802 0.000000 0.000000 -0.992805 0.581082 2.919989 139.999802
[Rope4_Seg08]
6 139.999924 0.000000 0.000119 -2.052258 0.286041 1.515154 139.999924
7 139.999924 0.000000 0.000119 -2.140703 0.304821 1.663017 139.999924
[Rope4_Seg09]
6 90.185791 0.000060 0.000060 -135.617828 2.228885 0.850567 90.185791
7 90.185791 0.000060 0.000060 -135.617828 2.228885 0.850567 90.185791
[L_rear_hand01]
6 101.696655 -8.392275 -7.654577 -12.874834 -36.868492 107.832779 102.329041
7 101.696655 -8.392275 -7.654577 -12.874829 -36.868488 107.832764 102.329041
[L_rear_hand02]
6 102.726799 -1.568258 5.773216 71.484581 71.816628 158.486160 102.900848
7 102.726799 -1.568258 5.773216 71.484627 71.816643 158.486160 102.900848
[L_rear_hand03]
6 104.552910 9.721220 -10.420293 -177.714203 -24.565960 -106.089035 105.519653
7 104.552910 9.721220 -10.420293 -177.714203 -24.565960 -106.089035 105.519653
